# xmcd
#
# Track frame offsets:
#	150
#	18399
#	35374
#	52153
#	68472
#	85611
#	100585
#	115254
#	127537
#	142723
#	159011
#	174465
#	193340
#	209979
#	225618
#	246410
#	260013
#	275854
#	293326
#	308177
#
# Disc length: 4349
#
# Revision: 3
# Processed by: cddbd v1.5.1PL0 Copyright (c) Steve Scherf et al.
# Submitted via: ExactAudioCopy v0.90b4
# Normalized: r2:DSETVAR1
#
DISCID=1310fb14
DTITLE=Various Artist - Schlagergrüsse aus ...
DYEAR=2001
DGENRE=Schlager
TTITLE0=Brunner and Brunner - Wir sind alle über 40
TTITLE1=Henning Holm - Maddalena 2001 (Du Luder)
TTITLE2=Andrea Berg - Du hast mich tausendmal belogen
TTITLE3=Jürgen Drews - Wieder alles im Griff
TTITLE4=Rosanna Rocci - Lailola
TTITLE5=Bernhard Brink - Erst machst Du auf Liebe
TTITLE6=G. G. Anderson - Nein heisst ja
TTITLE7=Christian Franke - Ich wünsch' dir die Hölle auf Erden 2001
TTITLE8=Olaf Berger - Baila Baila
TTITLE9=Roland Kaiser - Ich geh' mit dir wohin du willst
TTITLE10=Matthias Reim - Sowieso (Für dich das Letzte)
TTITLE11=Bernd Clüver - Wer weiss...
TTITLE12=Juliane Werding - Daisy
TTITLE13=Kristina Bach - Unverschämte blaue Augen
TTITLE14=Sandy Wagner - Uh La La
TTITLE15=Scheunenrocker - Popo Salsa
TTITLE16=Matthias Carras - Ich bin dein Co-Pilot
TTITLE17=Michael Morgan - Wer die Sehnsucht kennt
TTITLE18=Pro Secco - Wilde Zeiten
TTITLE19=Caroline Beil - Sag mir wann
EXTD=
EXTT0=
EXTT1=
EXTT2=
EXTT3=
EXTT4=
EXTT5=
EXTT6=
EXTT7=
EXTT8=
EXTT9=
EXTT10=
EXTT11=
EXTT12=
EXTT13=
EXTT14=
EXTT15=
EXTT16=
EXTT17=
EXTT18=
EXTT19=
PLAYORDER=
